<svg width="172" height="44" viewBox="0 0 172 44" fill="none" xmlns="http://www.w3.org/2000/svg">
  <path
    d="M40.0404 21.3266C40.0404 20.6588 39.9691 19.9989 39.8242 19.3469C39.8175 19.2728 39.8169 19.1981 39.8029 19.1251C39.367 16.8258 38.469 14.722 37.1189 12.8124C36.3612 11.742 35.5008 10.7625 34.4849 9.9274C34.418 9.86338 34.3546 9.79542 34.2838 9.73701C31.4718 7.41864 28.2486 6.16567 24.6043 6.01459C23.5861 5.97247 22.5701 6.0174 21.5654 6.21172C21.4817 6.21846 21.3969 6.21846 21.3149 6.23362C19.1695 6.63855 17.1538 7.38101 15.3325 8.59973C11.4321 11.209 9.01877 14.8197 8.22688 19.448C7.69335 22.5667 8.10333 25.5921 9.42482 28.4878C12.4216 35.0543 19.616 39.3889 27.4085 37.5917C33.6559 36.1506 37.6754 32.181 39.5305 26.0453C39.9944 24.511 40.1196 22.9267 40.0404 21.3266ZM38.3595 25.7084C36.6617 31.1741 33.1443 34.9077 27.5562 36.268C21.3289 37.7832 16.1777 35.7496 12.234 30.7377C10.1903 28.1407 9.15749 25.1406 9.21814 21.8225C9.29396 17.6974 10.9041 14.2131 13.8571 11.3623C15.8576 9.43093 18.2366 8.15942 20.9622 7.55849C20.9976 7.55062 21.0301 7.53153 21.0644 7.51749C21.0801 7.53209 21.0964 7.54332 21.1133 7.55175C21.1284 7.53265 21.1447 7.51637 21.1621 7.50401C21.8327 7.41303 22.5005 7.29621 23.1778 7.2597C27.0299 7.05528 30.4311 8.21221 33.4156 10.6395C34.3776 11.4219 35.233 12.316 35.9518 13.3134C37.4334 15.3712 38.4494 17.6368 38.7605 20.1848C38.8728 21.1014 38.8874 22.0185 38.8605 22.9385H38.8588C38.8588 22.9385 38.8537 22.9413 38.8509 22.9435C38.8537 22.9474 38.8565 22.9514 38.8599 22.9547C38.7582 23.8848 38.6381 24.8126 38.3595 25.7084Z"
    fill="currentColor" />
  <path
    d="M36.4876 21.8248C32.4041 17.7732 28.3183 13.724 24.2387 9.66849C24.0814 9.51236 24.0039 9.48541 23.8298 9.65951C20.8459 12.6411 17.8542 15.6149 14.8636 18.5904C13.7836 19.6648 12.7019 20.738 11.6208 21.8118C11.4921 21.8933 11.3866 21.9781 11.5747 22.1084C11.7404 22.2662 11.9061 22.4235 12.0717 22.5813C12.147 22.6633 12.2189 22.7486 12.2975 22.8273C16.1289 26.6384 19.9631 30.4479 23.7894 34.2652C23.9781 34.4534 24.0691 34.491 24.2808 34.2787C26.4722 32.0805 28.6788 29.8969 30.8787 27.7066C31.7857 26.8035 32.6854 25.8937 33.5885 24.9867C34.5759 24.0179 35.5615 23.0474 36.5522 22.0825C36.6977 21.9405 36.5556 21.8927 36.4876 21.8248ZM24.6436 31.9822V29.4021C24.6425 28.476 24.6425 27.5494 24.6414 26.6232V26.6025C24.6408 26.1234 24.6408 25.6449 24.6397 25.1664V25.1462C24.6391 24.6143 24.6385 24.0825 24.6374 23.5506V23.545C24.6374 23.331 24.6369 23.1176 24.6363 22.9036V22.8806C24.6363 22.7396 24.6425 22.6548 24.8463 22.6554C26.8418 22.6616 28.8372 22.6627 30.8321 22.6633H30.8489C31.8402 22.6633 32.8315 22.6633 33.8227 22.6638C33.8575 22.6638 33.8924 22.67 33.9901 22.6784C30.8894 25.8089 27.7994 28.8798 24.6436 31.9822ZM24.6459 12.0582C24.7705 12.0958 24.8362 12.1874 24.9115 12.2609C25.9342 13.2629 26.9552 14.267 27.9774 15.2695C28.0437 15.3347 28.1155 15.3937 28.1846 15.4554C28.2178 15.488 28.2509 15.52 28.284 15.552C28.4037 15.7025 28.5379 15.839 28.6923 15.9541C28.7109 16.0036 28.7446 16.0378 28.7945 16.0552C28.8198 16.112 28.8603 16.153 28.9175 16.1765C29.3758 16.6416 29.8296 17.1105 30.2924 17.5711C31.2915 18.564 32.2951 19.553 33.2965 20.5431C33.3184 20.5993 33.3571 20.6392 33.4133 20.6611C33.4318 20.7139 33.4672 20.7498 33.52 20.7684C33.5419 20.8251 33.5807 20.8644 33.6374 20.8863C33.6565 20.9385 33.6919 20.9739 33.7441 20.993C33.8059 21.0711 33.8677 21.1486 33.9283 21.225C33.8688 21.2996 33.798 21.2676 33.7385 21.2676C30.8096 21.2682 27.8802 21.2643 24.9514 21.2704C24.72 21.271 24.6357 21.2384 24.6369 20.9733C24.6414 19.4895 24.6419 18.0052 24.6408 16.5214V16.5057C24.6447 16.3018 24.6492 16.1002 24.6593 15.8963C24.6683 15.7059 24.6537 15.5133 24.6402 15.3201V15.3049C24.6391 14.2743 24.6374 13.2443 24.6369 12.2138C24.6369 12.1688 24.6419 12.1233 24.6459 12.0582ZM23.3058 12.1621C23.3406 12.2267 23.353 12.3008 23.3496 12.3895C23.3479 12.4328 23.3451 12.4912 23.3592 12.5361V13.1601C23.3171 13.2286 23.3491 13.3269 23.3491 13.401C23.3429 15.9463 23.344 18.4915 23.344 21.0368C23.344 21.0784 23.3463 21.1194 23.3513 21.1587C23.3339 21.2306 23.2834 21.2733 23.1379 21.2727C20.2107 21.2637 17.2836 21.2665 14.3558 21.2665H14.143C17.2005 18.1961 20.2141 15.1853 23.3058 12.1621ZM23.3603 31.78C23.3603 31.8048 23.3519 31.8289 23.339 31.9036C20.2253 28.8546 17.1769 25.7915 14.0902 22.661H15.7167C18.1765 22.661 20.637 22.6621 23.0975 22.6593C23.2626 22.6593 23.367 22.6526 23.3665 22.8834C23.3575 25.8488 23.3609 28.8141 23.3603 31.78Z"
    fill="currentColor" />
  <path
    d="M19.58 31.5402C18.9724 31.5425 18.3641 31.5464 17.7565 31.5329C15.9042 31.4908 14.5743 30.1469 14.5513 28.2974C14.544 27.6898 14.549 27.0821 14.5468 26.4739C14.5468 26.3829 14.5648 26.2863 14.4873 26.2105C14.129 25.8611 13.7723 25.5112 13.373 25.1204C13.4224 26.3037 13.3449 27.4258 13.4202 28.5474C13.5769 30.873 15.3263 32.5938 17.6537 32.6663C18.7095 32.6989 19.7671 32.6758 20.824 32.677C20.8656 32.677 20.9189 32.6927 20.9459 32.6242C20.61 32.3068 20.2691 31.9895 19.9344 31.6655C19.8316 31.5655 19.7182 31.5397 19.58 31.5402Z"
    fill="currentColor" />
  <path
    d="M28.5154 12.4642C29.1051 12.4575 29.6943 12.4547 30.2834 12.4665C31.9671 12.4991 33.3611 13.7616 33.5442 15.4369C33.6172 16.1069 33.5576 16.7831 33.5678 17.4559C33.5689 17.548 33.5369 17.6497 33.6003 17.7289C33.9328 18.1389 34.3203 18.4938 34.7185 18.8521C34.7039 17.616 34.8303 16.3911 34.6455 15.1763C34.3473 13.2118 32.8214 11.6454 30.9433 11.3977C29.6898 11.232 28.4267 11.373 27.1681 11.3202C27.491 11.6622 27.7977 11.9779 28.0931 12.3031C28.2121 12.4339 28.3464 12.4665 28.5154 12.4642Z"
    fill="currentColor" />
  <path
    d="M14.4002 17.826C14.5131 17.7098 14.5485 17.5834 14.5457 17.4239C14.5361 16.8909 14.5356 16.358 14.5395 15.825C14.5547 13.9132 15.9492 12.5013 17.8626 12.4659C18.4422 12.4558 19.0218 12.4676 19.6014 12.467C19.6845 12.467 19.8002 12.4873 19.8457 12.4429C20.2107 12.0807 20.5629 11.7061 20.9111 11.3421C19.8086 11.3421 18.6949 11.2949 17.5863 11.3522C15.3915 11.4662 13.6583 13.1578 13.4303 15.3459C13.3101 16.5023 13.409 17.6626 13.4252 18.8555C13.7499 18.5118 14.0711 18.1652 14.4002 17.826Z"
    fill="currentColor" />
  <path
    d="M34.7118 27.0231C34.7213 26.4031 34.714 25.7831 34.714 25.0928C34.358 25.4596 34.0232 25.7499 33.7424 26.0948C33.5801 26.1925 33.5414 26.3396 33.5408 26.5227C33.5397 27.2803 33.6127 28.0436 33.5099 28.7945C33.2976 30.3462 32.0373 31.465 30.4552 31.5301C29.792 31.5576 29.127 31.5357 28.4626 31.5369C28.3615 31.5374 28.2599 31.5195 28.1751 31.6076C27.8353 31.9598 27.491 32.308 27.1164 32.6904C28.3868 32.659 29.619 32.7387 30.8495 32.6365C31.0163 32.623 31.1831 32.5882 31.3465 32.5512C33.1825 32.1327 34.6343 30.4153 34.6562 28.6389C34.6668 28.6131 34.6781 28.5884 34.6781 28.5592V28.512C34.7539 28.0178 34.7045 27.519 34.7118 27.0231Z"
    fill="currentColor" />
  <path
    d="M154.876 29.8537V13.4634H158.621V16.1951H158.792C159.09 15.249 159.603 14.5198 160.328 14.0076C161.061 13.4883 161.897 13.2287 162.836 13.2287C163.049 13.2287 163.288 13.2393 163.551 13.2607C163.821 13.2749 164.045 13.2998 164.223 13.3354V16.8887C164.059 16.8318 163.8 16.782 163.444 16.7393C163.096 16.6895 162.758 16.6646 162.43 16.6646C161.726 16.6646 161.093 16.8176 160.531 17.1235C159.976 17.4223 159.539 17.8384 159.219 18.3719C158.898 18.9055 158.738 19.5208 158.738 20.218V29.8537H154.876Z"
    fill="currentColor" />
  <path
    d="M144.92 30.1738C143.277 30.1738 141.858 29.8323 140.663 29.1494C139.475 28.4593 138.561 27.4848 137.92 26.2256C137.28 24.9593 136.96 23.469 136.96 21.7546C136.96 20.0686 137.28 18.5889 137.92 17.3155C138.568 16.0351 139.471 15.0391 140.631 14.3277C141.79 13.6092 143.153 13.25 144.718 13.25C145.728 13.25 146.681 13.4136 147.577 13.7408C148.481 14.061 149.278 14.5589 149.968 15.2348C150.665 15.9106 151.213 16.7713 151.611 17.8171C152.009 18.8557 152.209 20.0935 152.209 21.5305V22.7149H138.774V20.1113H148.506C148.499 19.3714 148.339 18.7134 148.026 18.1372C147.713 17.5539 147.275 17.095 146.713 16.7607C146.158 16.4263 145.511 16.2591 144.771 16.2591C143.981 16.2591 143.288 16.4512 142.69 16.8354C142.093 17.2124 141.627 17.7104 141.292 18.3293C140.965 18.9411 140.798 19.6133 140.791 20.346V22.6189C140.791 23.5722 140.965 24.3902 141.314 25.0732C141.662 25.749 142.15 26.2683 142.776 26.6311C143.402 26.9868 144.134 27.1646 144.974 27.1646C145.536 27.1646 146.044 27.0864 146.5 26.9299C146.955 26.7663 147.35 26.5279 147.684 26.2149C148.019 25.9019 148.271 25.5142 148.442 25.0518L152.049 25.4573C151.821 26.4106 151.387 27.2429 150.747 27.9543C150.114 28.6585 149.303 29.2063 148.314 29.5976C147.325 29.9817 146.194 30.1738 144.92 30.1738Z"
    fill="currentColor" />
  <path
    d="M131.93 30.0884C131.282 30.0884 130.727 29.8608 130.265 29.4055C129.803 28.9502 129.575 28.3953 129.582 27.7409C129.575 27.1006 129.803 26.5528 130.265 26.0976C130.727 25.6423 131.282 25.4146 131.93 25.4146C132.556 25.4146 133.1 25.6423 133.562 26.0976C134.032 26.5528 134.27 27.1006 134.277 27.7409C134.27 28.1748 134.156 28.5696 133.936 28.9253C133.722 29.281 133.438 29.5656 133.082 29.779C132.733 29.9853 132.349 30.0884 131.93 30.0884Z"
    fill="currentColor" />
  <path
    d="M115.703 20.25V29.8537H111.84V13.4634H115.532V16.2485H115.724C116.101 15.3308 116.702 14.6016 117.528 14.061C118.36 13.5203 119.388 13.25 120.611 13.25C121.742 13.25 122.728 13.4919 123.567 13.9756C124.414 14.4593 125.068 15.1601 125.531 16.0777C126 16.9954 126.231 18.1087 126.224 19.4177V29.8537H122.361V20.0152C122.361 18.9197 122.077 18.0625 121.508 17.4436C120.946 16.8247 120.167 16.5152 119.171 16.5152C118.495 16.5152 117.894 16.6646 117.367 16.9634C116.848 17.2551 116.439 17.6784 116.14 18.2332C115.849 18.7881 115.703 19.4604 115.703 20.25Z"
    fill="currentColor" />
  <path
    d="M97.9928 20.25V29.8537H94.13V13.4634H97.8221V16.2485H98.0142C98.3912 15.3308 98.9923 14.6016 99.8175 14.061C100.65 13.5203 101.678 13.25 102.901 13.25C104.032 13.25 105.018 13.4919 105.857 13.9756C106.704 14.4593 107.358 15.1601 107.821 16.0777C108.29 16.9954 108.521 18.1087 108.514 19.4177V29.8537H104.651V20.0152C104.651 18.9197 104.367 18.0625 103.798 17.4436C103.236 16.8247 102.457 16.5152 101.461 16.5152C100.785 16.5152 100.184 16.6646 99.6575 16.9634C99.1382 17.2551 98.7291 17.6784 98.4303 18.2332C98.1387 18.7881 97.9928 19.4604 97.9928 20.25Z"
    fill="currentColor" />
  <path
    d="M82.1929 30.1844C81.1543 30.1844 80.2188 29.9995 79.3865 29.6296C78.5613 29.2525 77.9068 28.6977 77.4231 27.9649C76.9465 27.2322 76.7081 26.3288 76.7081 25.2546C76.7081 24.3298 76.8789 23.565 77.2203 22.9604C77.5618 22.3557 78.0277 21.8719 78.6182 21.5091C79.2086 21.1463 79.8738 20.8725 80.6136 20.6875C81.3606 20.4954 82.1324 20.3567 82.9292 20.2713C83.8895 20.1717 84.6685 20.0828 85.2661 20.0046C85.8636 19.9192 86.2976 19.7912 86.5679 19.6204C86.8453 19.4426 86.9841 19.1687 86.9841 18.7988V18.7348C86.9841 17.9309 86.7457 17.3084 86.2691 16.8674C85.7925 16.4263 85.106 16.2058 84.2097 16.2058C83.2635 16.2058 82.513 16.4121 81.9581 16.8247C81.4104 17.2373 81.0405 17.7246 80.8484 18.2866L77.2417 17.7744C77.5262 16.7785 77.9957 15.9461 78.6502 15.2774C79.3047 14.6016 80.105 14.0965 81.0511 13.7622C81.9973 13.4207 83.043 13.25 84.1883 13.25C84.978 13.25 85.764 13.3425 86.5466 13.5274C87.3291 13.7124 88.044 14.0183 88.6914 14.4451C89.3387 14.8648 89.858 15.4375 90.2493 16.1631C90.6477 16.8887 90.8469 17.7957 90.8469 18.8841V29.8537H87.1334V27.6021H87.0054C86.7706 28.0574 86.4398 28.4842 86.013 28.8826C85.5933 29.2739 85.0633 29.5904 84.4231 29.8323C83.79 30.0671 83.0466 30.1844 82.1929 30.1844ZM83.1959 27.346C83.9714 27.346 84.6436 27.1931 85.2127 26.8872C85.7818 26.5742 86.2193 26.1616 86.5252 25.6494C86.8382 25.1372 86.9947 24.5788 86.9947 23.9741V22.0427C86.8738 22.1423 86.6675 22.2348 86.3758 22.3201C86.0913 22.4055 85.7711 22.4802 85.4155 22.5442C85.0598 22.6082 84.7076 22.6651 84.3591 22.7149C84.0105 22.7647 83.7081 22.8074 83.452 22.843C82.8758 22.9212 82.3601 23.0493 81.9048 23.2271C81.4495 23.405 81.0903 23.654 80.827 23.9741C80.5638 24.2871 80.4322 24.6926 80.4322 25.1905C80.4322 25.9019 80.6919 26.439 81.2112 26.8018C81.7305 27.1646 82.3921 27.346 83.1959 27.346Z"
    fill="currentColor" />
  <path d="M74.1052 8V29.8537H70.2424V8H74.1052Z" fill="currentColor" />
  <path
    d="M52.0629 36V13.4634H55.8617V16.1738H56.0858C56.285 15.7754 56.566 15.3521 56.9288 14.904C57.2916 14.4487 57.7824 14.061 58.4013 13.7408C59.0202 13.4136 59.8099 13.25 60.7702 13.25C62.0365 13.25 63.1783 13.5737 64.1955 14.221C65.2199 14.8613 66.0309 15.811 66.6285 17.0701C67.2331 18.3222 67.5355 19.8587 67.5355 21.6799C67.5355 23.4797 67.2403 25.0091 66.6498 26.2683C66.0594 27.5274 65.2555 28.4878 64.2382 29.1494C63.2209 29.811 62.0685 30.1418 60.7809 30.1418C59.8419 30.1418 59.0629 29.9853 58.444 29.6722C57.8251 29.3592 57.3271 28.9822 56.9501 28.5412C56.5802 28.093 56.2921 27.6697 56.0858 27.2713H55.9257V36H52.0629ZM55.851 21.6585C55.851 22.7185 56.0004 23.6468 56.2992 24.4436C56.6051 25.2403 57.0426 25.8628 57.6117 26.311C58.1879 26.752 58.8851 26.9726 59.7032 26.9726C60.5568 26.9726 61.2718 26.7449 61.848 26.2896C62.4242 25.8272 62.8581 25.1977 63.1498 24.4009C63.4486 23.597 63.598 22.6829 63.598 21.6585C63.598 20.6413 63.4521 19.7378 63.1605 18.9482C62.8688 18.1585 62.4349 17.5396 61.8586 17.0915C61.2824 16.6433 60.5639 16.4192 59.7032 16.4192C58.878 16.4192 58.1772 16.6362 57.601 17.0701C57.0248 17.5041 56.5873 18.1123 56.2885 18.8948C55.9969 19.6773 55.851 20.5986 55.851 21.6585Z"
    fill="currentColor" />
</svg>